<svg width="20" height="20" viewBox="0 0 20 20" fill="none" xmlns="http://www.w3.org/2000/svg">
<path d="M17.7342 10.6463C17.9031 10.4773 17.998 10.2481 17.998 10.0091C17.998 9.77013 17.9031 9.54092 17.7342 9.3719L12.6355 4.27321C12.5523 4.18712 12.4529 4.11846 12.3429 4.07122C12.2329 4.02398 12.1147 3.99912 11.995 3.99808C11.8753 3.99704 11.7566 4.01985 11.6459 4.06516C11.5351 4.11048 11.4345 4.17741 11.3498 4.26203C11.2652 4.34666 11.1983 4.44729 11.153 4.55806C11.1077 4.66883 11.0849 4.78751 11.0859 4.90719C11.0869 5.02686 11.1118 5.14513 11.159 5.25509C11.2063 5.36506 11.2749 5.46451 11.361 5.54765L14.9212 9.10782L2.90326 9.10778C2.66422 9.10778 2.43497 9.20274 2.26594 9.37177C2.09691 9.5408 2.00195 9.77005 2.00195 10.0091C2.00195 10.2481 2.09691 10.4774 2.26594 10.6464C2.43497 10.8154 2.66422 10.9104 2.90326 10.9104L14.9212 10.9104L11.361 14.4706C11.1968 14.6406 11.106 14.8683 11.108 15.1046C11.1101 15.3409 11.2049 15.5669 11.372 15.7341C11.5391 15.9012 11.7652 15.996 12.0015 15.998C12.2378 16.0001 12.4655 15.9092 12.6355 15.745L17.7342 10.6463Z" fill="#171717"/>
</svg>
