<svg width="32" height="32" viewBox="0 0 32 32" fill="none" xmlns="http://www.w3.org/2000/svg">
<path d="M20.3019 16.3217C20.3019 14.2748 18.6366 12.6095 16.5897 12.6095H13.7338C12.65 12.6095 11.7683 13.4912 11.7683 14.575V21.9828H13.7523V14.5935H16.5897C17.5426 14.5935 18.318 15.3688 18.318 16.3217V21.9828H20.3019V16.3217ZM29.8092 15.1573C28.559 14.2117 27.2025 13.4071 25.7774 12.766L25.7515 12.8238L25.3018 14.7333C26.4677 15.286 27.5803 15.9588 28.6124 16.7396C28.816 16.8936 28.933 17.1279 28.9332 17.3824C28.9334 17.5291 28.8932 17.8058 28.6221 18.0116C27.4946 18.8679 26.2671 19.5982 24.9738 20.1824C24.6105 20.3464 24.3137 20.1979 24.2031 20.1264C24.094 20.0562 23.8404 19.8504 23.8401 19.4606L23.8368 9.7417L21.8528 9.74243L21.8562 19.4618C21.8569 20.4089 22.3323 21.2807 23.1276 21.7937C23.5866 22.0898 24.1103 22.24 24.6375 22.24C25.0282 22.24 25.4208 22.1575 25.7904 21.9905C27.2195 21.345 28.5759 20.5379 29.822 19.5916C30.5189 19.0623 30.9181 18.2563 30.9171 17.3804C30.9163 16.4996 30.5125 15.6892 29.8092 15.1573ZM10.131 15.3946L10.1277 21.9834L8.14376 21.9823L8.14711 15.3934C8.14738 15.0016 7.89288 14.7946 7.78339 14.7237C7.67354 14.6526 7.37925 14.5047 7.02024 14.666C5.73078 15.2461 4.50321 15.9742 3.37154 16.8302C3.16788 16.9843 3.05096 17.2186 3.05069 17.4732C3.05051 17.6197 3.09075 17.8964 3.36184 18.1023C4.3755 18.872 5.47038 19.539 6.62081 20.0905L6.15622 22.0637C4.74095 21.4211 3.3971 20.6203 2.16192 19.6822C1.46502 19.153 1.06578 18.3471 1.06668 17.4712C1.0675 16.5902 1.47137 15.7798 2.1747 15.2479C3.42483 14.3023 4.78128 13.4977 6.20643 12.8567C7.07236 12.4672 8.06491 12.5427 8.8615 13.0582C9.65719 13.5732 10.1318 14.4467 10.131 15.3946Z" fill="#006FC7"/>
</svg>
