<svg id="cardsIcon" viewBox="0 0 20 20" xmlns="http://www.w3.org/2000/svg">
<g clip-path="url(#clip0_42_1843)">
<path d="M5.89649 13.114C6.41949 13.114 6.84346 12.6901 6.84346 12.1671C6.84346 11.6441 6.41949 11.2201 5.89649 11.2201C5.3735 11.2201 4.94952 11.6441 4.94952 12.1671C4.94952 12.6901 5.3735 13.114 5.89649 13.114Z" />
<path d="M14.4192 4.27573H5.58082C4.74396 4.27673 3.94165 4.60962 3.3499 5.20137C2.75815 5.79312 2.42526 6.59543 2.42426 7.43229L2.42426 12.4828C2.42526 13.3197 2.75815 14.122 3.3499 14.7137C3.94165 15.3055 4.74396 15.6384 5.58082 15.6394H14.4192C15.2561 15.6384 16.0584 15.3055 16.6501 14.7137C17.2419 14.122 17.5748 13.3197 17.5758 12.4828V7.43229C17.5748 6.59543 17.2419 5.79312 16.6501 5.20137C16.0584 4.60962 15.2561 4.27673 14.4192 4.27573ZM5.58082 5.53835H14.4192C14.9215 5.53835 15.4032 5.73789 15.7584 6.09307C16.1136 6.44826 16.3131 6.92999 16.3131 7.43229H3.68688C3.68688 6.92999 3.88642 6.44826 4.2416 6.09307C4.59679 5.73789 5.07852 5.53835 5.58082 5.53835ZM14.4192 14.3767H5.58082C5.07852 14.3767 4.59679 14.1772 4.2416 13.822C3.88642 13.4668 3.68688 12.9851 3.68688 12.4828V8.69492H16.3131V12.4828C16.3131 12.9851 16.1136 13.4668 15.7584 13.822C15.4032 14.1772 14.9215 14.3767 14.4192 14.3767Z" />
</g>
<defs>
<clipPath id="clip0_42_1843">
<rect width="15.1515" height="15.1515" fill="white" transform="translate(2.42426 2.38174)"/>
</clipPath>
</defs>
</svg>
