<svg id="dashboardIcon" viewBox="0 0 20 20" xmlns="http://www.w3.org/2000/svg">
<path d="M18.1136 9.57582C17.8433 7.49444 16.7905 5.59411 15.1693 4.26109C13.5481 2.92807 11.4801 2.26239 9.3857 2.39936C7.2913 2.53633 5.32764 3.46566 3.89386 4.99847C2.46007 6.53128 1.66374 8.55254 1.66674 10.6514C1.66277 11.7748 1.89043 12.887 2.3355 13.9185C2.78057 14.95 3.43349 15.8787 4.25351 16.6466C4.88065 17.2272 5.707 17.5446 6.56158 17.533H13.2828C14.1856 17.5351 15.053 17.1818 15.6975 16.5496C16.616 15.656 17.3128 14.56 17.7323 13.3491C18.1518 12.1383 18.2824 10.8461 18.1136 9.57582ZM14.7355 15.5628C14.3483 15.9442 13.8263 16.1576 13.2828 16.1566H6.56158C6.05873 16.167 5.57098 15.9845 5.19835 15.6467C4.5152 15.0068 3.97125 14.233 3.60042 13.3735C3.2296 12.5141 3.03986 11.5874 3.04305 10.6514C3.04372 9.68265 3.24865 8.72492 3.64445 7.84071C4.04025 6.9565 4.61804 6.16567 5.34011 5.51983C6.59471 4.38844 8.22557 3.76461 9.91496 3.76986C10.1849 3.76997 10.4546 3.78513 10.7229 3.81527C12.0136 3.96518 13.2354 4.47767 14.2469 5.29338C15.2583 6.10909 16.018 7.19465 16.4379 8.42432C16.8578 9.65399 16.9207 10.9775 16.6194 12.2414C16.3181 13.5054 15.6649 14.6582 14.7355 15.5662V15.5628ZM7.03916 13.6001C7.16966 13.7279 7.24406 13.9023 7.24599 14.0849C7.24793 14.2675 7.17724 14.4434 7.04948 14.5739C6.92173 14.7044 6.74736 14.7788 6.56475 14.7807C6.38214 14.7827 6.20624 14.712 6.07575 14.5842C5.29466 13.8191 4.7591 12.8387 4.53731 11.7681C4.31553 10.6974 4.41758 9.585 4.83045 8.57257C5.24332 7.56014 5.94831 6.69358 6.85556 6.08335C7.76281 5.47312 8.83122 5.14686 9.9246 5.14617C10.1878 5.14609 10.4506 5.16472 10.7112 5.20191C10.8006 5.21481 10.8867 5.24521 10.9644 5.29138C11.0421 5.33755 11.11 5.39858 11.1641 5.47098C11.2183 5.54339 11.2576 5.62575 11.2799 5.71336C11.3022 5.80097 11.307 5.89212 11.294 5.98159C11.2822 6.07155 11.2525 6.15823 11.2066 6.23654C11.1608 6.31484 11.0997 6.38319 11.0271 6.43756C10.9544 6.49194 10.8717 6.53123 10.7836 6.55314C10.6955 6.57505 10.604 6.57913 10.5143 6.56514C9.65311 6.44213 8.77502 6.59429 8.0054 6.99992C7.23577 7.40555 6.61393 8.04391 6.22863 8.82391C5.84332 9.60391 5.71423 10.4857 5.85979 11.3434C6.00534 12.2011 6.4181 12.9909 7.03916 13.6001ZM15.3741 9.86484C15.4113 10.1254 15.4299 10.3882 15.4298 10.6514C15.4321 11.3848 15.2865 12.111 15.0018 12.7869C14.7171 13.4627 14.2991 14.0742 13.7728 14.5849C13.6421 14.7127 13.466 14.7833 13.2833 14.7812C13.1005 14.7791 12.9261 14.7046 12.7983 14.5739C12.6706 14.4432 12.6 14.2671 12.602 14.0844C12.6041 13.9017 12.6787 13.7272 12.8093 13.5995C13.2743 13.1463 13.6254 12.5895 13.834 11.9746C14.0426 11.3597 14.1027 10.7042 14.0095 10.0617C13.9834 9.88088 14.0302 9.69714 14.1395 9.55086C14.2489 9.40457 14.4119 9.30773 14.5927 9.28163C14.7735 9.25553 14.9572 9.30232 15.1035 9.41169C15.2498 9.52106 15.3466 9.68407 15.3727 9.86484H15.3741ZM11.25 10.2991C11.3328 10.5969 11.3147 10.9137 11.1984 11.2001C11.0821 11.4865 10.8743 11.7264 10.6073 11.8822C10.3404 12.038 10.0293 12.101 9.72277 12.0614C9.41622 12.0217 9.13142 11.8817 8.91285 11.6631C8.69429 11.4446 8.55426 11.1598 8.51463 10.8532C8.47501 10.5467 8.53802 10.2356 8.69384 9.96868C8.84965 9.70172 9.08948 9.49388 9.37588 9.37761C9.66229 9.26135 9.97913 9.2432 10.2769 9.32602L12.8788 6.7241C12.9423 6.65838 13.0183 6.60595 13.1022 6.56989C13.1862 6.53382 13.2765 6.51484 13.3678 6.51405C13.4592 6.51325 13.5498 6.53066 13.6344 6.56526C13.719 6.59986 13.7958 6.65096 13.8604 6.71558C13.925 6.78019 13.9761 6.85702 14.0107 6.94159C14.0453 7.02617 14.0627 7.11678 14.062 7.20815C14.0612 7.29953 14.0422 7.38983 14.0061 7.47378C13.97 7.55774 13.9176 7.63368 13.8519 7.69716L11.25 10.2991Z" />
</svg>
