<svg id="faqIcon" viewBox="0 0 20 20" xmlns="http://www.w3.org/2000/svg">
<g clip-path="url(#clip0_42_1909)">
<path d="M10 2.38176C8.50167 2.38176 7.03698 2.82607 5.79115 3.65851C4.54532 4.49094 3.57432 5.67411 3.00093 7.0584C2.42754 8.44269 2.27751 9.96592 2.56982 11.4355C2.86214 12.905 3.58366 14.2549 4.64315 15.3144C5.70264 16.3739 7.05251 17.0954 8.52206 17.3877C9.99161 17.68 11.5148 17.53 12.8991 16.9566C14.2834 16.3832 15.4666 15.4122 16.299 14.1664C17.1315 12.9206 17.5758 11.4559 17.5758 9.95752C17.5736 7.94897 16.7747 6.02331 15.3545 4.60305C13.9342 3.18279 12.0086 2.38393 10 2.38176ZM10 16.2706C8.7514 16.2706 7.53082 15.9004 6.49263 15.2067C5.45444 14.513 4.64527 13.527 4.16744 12.3734C3.68962 11.2199 3.5646 9.95051 3.80819 8.72589C4.05178 7.50126 4.65305 6.37637 5.53596 5.49346C6.41887 4.61055 7.54376 4.00928 8.76839 3.76569C9.99301 3.5221 11.2624 3.64712 12.4159 4.12494C13.5695 4.60277 14.5555 5.41194 15.2492 6.45013C15.9429 7.48832 16.3131 8.7089 16.3131 9.95752C16.3113 11.6313 15.6456 13.236 14.462 14.4195C13.2785 15.6031 11.6738 16.2688 10 16.2706Z" />
<path d="M10.4526 5.57808C10.0886 5.51175 9.71439 5.52624 9.35655 5.62053C8.99871 5.71482 8.66596 5.8866 8.38186 6.12372C8.09776 6.36085 7.86925 6.65751 7.71249 6.99272C7.55573 7.32794 7.47457 7.6935 7.47473 8.06356C7.47473 8.23099 7.54124 8.39157 7.65964 8.50996C7.77803 8.62836 7.93861 8.69487 8.10604 8.69487C8.27348 8.69487 8.43406 8.62836 8.55245 8.50996C8.67084 8.39157 8.73736 8.23099 8.73736 8.06356C8.7372 7.87781 8.77802 7.69432 8.85692 7.52616C8.93582 7.358 9.05085 7.20932 9.19381 7.09072C9.33677 6.97212 9.50413 6.88653 9.68396 6.84004C9.8638 6.79355 10.0517 6.78731 10.2342 6.82177C10.4836 6.87018 10.7129 6.99183 10.8928 7.17119C11.0727 7.35055 11.1951 7.57947 11.2443 7.82871C11.294 8.09033 11.2597 8.36095 11.1463 8.6019C11.0329 8.84285 10.8462 9.04178 10.613 9.17025C10.2267 9.39403 9.90755 9.71729 9.6887 10.1064C9.46985 10.4954 9.35933 10.9361 9.36867 11.3824V11.8514C9.36867 12.0189 9.43518 12.1794 9.55358 12.2978C9.67197 12.4162 9.83255 12.4828 9.99998 12.4828C10.1674 12.4828 10.328 12.4162 10.4464 12.2978C10.5648 12.1794 10.6313 12.0189 10.6313 11.8514V11.3824C10.6234 11.1627 10.6735 10.9448 10.7765 10.7506C10.8796 10.5564 11.032 10.3928 11.2184 10.2763C11.6758 10.0251 12.0441 9.63834 12.2728 9.16924C12.5014 8.70014 12.5791 8.17174 12.4951 7.65669C12.4112 7.14165 12.1697 6.66526 11.804 6.29304C11.4382 5.92082 10.9661 5.67105 10.4526 5.57808Z" />
<path d="M10.6313 13.7454C10.6313 13.3967 10.3487 13.1141 10 13.1141C9.65136 13.1141 9.36871 13.3967 9.36871 13.7454C9.36871 14.0941 9.65136 14.3767 10 14.3767C10.3487 14.3767 10.6313 14.0941 10.6313 13.7454Z" />
</g>
<defs>
<clipPath id="clip0_42_1909">
<rect width="15.1515" height="15.1515" fill="white" transform="translate(2.42426 2.38176)"/>
</clipPath>
</defs>
</svg>
