<svg width="20" height="20" viewBox="0 0 20 20" fill="none" xmlns="http://www.w3.org/2000/svg">
<g clip-path="url(#clip0_62_1994)">
<path d="M15.5555 3.75H7.22222C5.68749 3.75 4.44444 4.99306 4.44444 6.52778V10.6944C4.44444 12.2292 5.68749 13.4722 7.22222 13.4722H15.5555C17.0903 13.4722 18.3333 12.2292 18.3333 10.6944V6.52778C18.3333 4.99306 17.0903 3.75 15.5555 3.75ZM16.9444 10.6944C16.9444 11.4583 16.3194 12.0833 15.5555 12.0833H7.22222C6.45833 12.0833 5.83333 11.4583 5.83333 10.6944V6.52778C5.83333 5.76389 6.45833 5.13889 7.22222 5.13889H15.5555C16.3194 5.13889 16.9444 5.76389 16.9444 6.52778V10.6944ZM14.8611 15.5556C14.8611 15.9375 14.5486 16.25 14.1667 16.25H5.13888C3.22222 16.25 1.66666 14.6944 1.66666 12.7778V7.91667C1.66666 7.53472 1.97916 7.22222 2.3611 7.22222C2.74305 7.22222 3.05555 7.53472 3.05555 7.91667V12.7778C3.05555 13.9236 3.99305 14.8611 5.13888 14.8611H14.1667C14.5486 14.8611 14.8611 15.1736 14.8611 15.5556ZM11.3889 6.52778C10.243 6.52778 9.30555 7.46528 9.30555 8.61111C9.30555 9.75694 10.243 10.6944 11.3889 10.6944C12.5347 10.6944 13.4722 9.75694 13.4722 8.61111C13.4722 7.46528 12.5347 6.52778 11.3889 6.52778ZM11.3889 9.30556C11.0069 9.30556 10.6944 8.99306 10.6944 8.61111C10.6944 8.22917 11.0069 7.91667 11.3889 7.91667C11.7708 7.91667 12.0833 8.22917 12.0833 8.61111C12.0833 8.99306 11.7708 9.30556 11.3889 9.30556Z" fill="white"/>
</g>
<defs>
<clipPath id="clip0_62_1994">
<rect width="16.6667" height="16.6667" fill="white" transform="translate(1.66667 1.66666)"/>
</clipPath>
</defs>
</svg>
