<svg id="invoiceIcon" viewBox="0 0 20 20" xmlns="http://www.w3.org/2000/svg">
<g clip-path="url(#clip0_42_1899)">
<path d="M10 2.38176C5.82261 2.38176 2.42426 5.78012 2.42426 9.95752C2.42426 14.1349 5.82261 17.5333 10 17.5333C14.1774 17.5333 17.5758 14.1349 17.5758 9.95752C17.5758 5.78012 14.1774 2.38176 10 2.38176ZM10 16.2706C6.51895 16.2706 3.68688 13.4386 3.68688 9.95752C3.68688 6.47646 6.51895 3.64439 10 3.64439C13.4811 3.64439 16.3131 6.47646 16.3131 9.95752C16.3131 13.4386 13.4811 16.2706 10 16.2706ZM12.5253 11.2201C12.5253 12.2643 11.6755 13.1141 10.6313 13.1141V13.7454C10.6313 14.0945 10.3491 14.3767 10 14.3767C9.6509 14.3767 9.3687 14.0945 9.3687 13.7454V13.1141H9.19951C8.5259 13.1141 7.89711 12.7517 7.55936 12.1677C7.38448 11.8653 7.48802 11.4796 7.78915 11.3054C8.09155 11.1292 8.47792 11.234 8.65153 11.5352C8.76453 11.7309 8.97413 11.8515 9.19888 11.8515H10.6307C10.9792 11.8515 11.262 11.5686 11.262 11.2201C11.262 10.9815 11.0909 10.7795 10.8554 10.7403L8.93562 10.4203C8.0884 10.2795 7.47413 9.55348 7.47413 8.69489C7.47413 7.6507 8.32388 6.80095 9.36807 6.80095V6.16964C9.36807 5.82115 9.65027 5.53833 9.99938 5.53833C10.3485 5.53833 10.6307 5.82115 10.6307 6.16964V6.80095H10.7999C11.4735 6.80095 12.1023 7.16396 12.44 7.74792C12.6149 8.04969 12.5114 8.43542 12.2102 8.6103C11.9072 8.78517 11.5215 8.68163 11.3479 8.37987C11.2349 8.18479 11.0253 8.06421 10.8005 8.06421H9.3687C9.02022 8.06421 8.73739 8.34767 8.73739 8.69552C8.73739 8.93416 8.90847 9.13618 9.14395 9.17532L11.0638 9.4954C11.911 9.63618 12.5253 10.3622 12.5253 11.2208V11.2201Z" />
</g>
<defs>
<clipPath id="clip0_42_1899">
<rect width="15.1515" height="15.1515" fill="white" transform="translate(2.42426 2.38176)"/>
</clipPath>
</defs>
</svg>
