<svg id="managersIcon" viewBox="0 0 20 20" xmlns="http://www.w3.org/2000/svg">
<g clip-path="url(#clip0_42_1878)">
<path d="M10 12.4828C9.50057 12.4828 9.01233 12.3347 8.59706 12.0572C8.18178 11.7797 7.85811 11.3853 7.66698 10.9239C7.47585 10.4625 7.42584 9.95472 7.52328 9.46487C7.62072 8.97502 7.86123 8.52506 8.21439 8.1719C8.56755 7.81873 9.01751 7.57823 9.50736 7.48079C9.99721 7.38335 10.505 7.43336 10.9664 7.62449C11.4278 7.81562 11.8222 8.13929 12.0997 8.55456C12.3772 8.96984 12.5253 9.45807 12.5253 9.95752C12.5253 10.6273 12.2592 11.2696 11.7856 11.7431C11.3121 12.2167 10.6698 12.4828 10 12.4828ZM10 8.69489C9.75029 8.69489 9.50617 8.76894 9.29854 8.90768C9.0909 9.04642 8.92906 9.24362 8.8335 9.47433C8.73793 9.70505 8.71293 9.95892 8.76165 10.2038C8.81037 10.4488 8.93062 10.6737 9.1072 10.8503C9.28378 11.0269 9.50876 11.1472 9.75369 11.1959C9.99861 11.2446 10.2525 11.2196 10.4832 11.124C10.7139 11.0285 10.9111 10.8666 11.0498 10.659C11.1886 10.4514 11.2626 10.2072 11.2626 9.95752C11.2626 9.62265 11.1296 9.3015 10.8928 9.06471C10.656 8.82792 10.3349 8.69489 10 8.69489ZM13.7879 16.902C13.7879 15.8974 13.3888 14.9339 12.6784 14.2235C11.9681 13.5132 11.0046 13.1141 10 13.1141C8.99541 13.1141 8.03194 13.5132 7.32158 14.2235C6.61121 14.9339 6.21213 15.8974 6.21213 16.902C6.21213 17.0694 6.27865 17.23 6.39704 17.3484C6.51544 17.4668 6.67601 17.5333 6.84345 17.5333C7.01088 17.5333 7.17146 17.4668 7.28985 17.3484C7.40825 17.23 7.47476 17.0694 7.47476 16.902C7.47476 16.2322 7.74081 15.5899 8.21439 15.1163C8.68797 14.6428 9.33027 14.3767 10 14.3767C10.6698 14.3767 11.3121 14.6428 11.7856 15.1163C12.2592 15.5899 12.5253 16.2322 12.5253 16.902C12.5253 17.0694 12.5918 17.23 12.7102 17.3484C12.8286 17.4668 12.9891 17.5333 13.1566 17.5333C13.324 17.5333 13.4846 17.4668 13.603 17.3484C13.7214 17.23 13.7879 17.0694 13.7879 16.902ZM13.7879 7.43227C13.2884 7.43227 12.8002 7.28416 12.3849 7.00668C11.9697 6.72921 11.646 6.33482 11.4549 5.87339C11.2637 5.41196 11.2137 4.90421 11.3112 4.41436C11.4086 3.92451 11.6491 3.47455 12.0023 3.12139C12.3554 2.76823 12.8054 2.52772 13.2952 2.43028C13.7851 2.33285 14.2928 2.38285 14.7543 2.57398C15.2157 2.76511 15.6101 3.08878 15.8876 3.50406C16.165 3.91933 16.3131 4.40757 16.3131 4.90701C16.3131 5.57675 16.0471 6.21906 15.5735 6.69264C15.0999 7.16621 14.4576 7.43227 13.7879 7.43227ZM13.7879 3.64439C13.5382 3.64439 13.2941 3.71844 13.0864 3.85718C12.8788 3.99592 12.7169 4.19311 12.6214 4.42383C12.5258 4.65454 12.5008 4.90841 12.5495 5.15334C12.5982 5.39827 12.7185 5.62324 12.8951 5.79983C13.0717 5.97641 13.2966 6.09666 13.5416 6.14538C13.7865 6.1941 14.0404 6.16909 14.2711 6.07353C14.5018 5.97796 14.699 5.81613 14.8377 5.60849C14.9765 5.40085 15.0505 5.15674 15.0505 4.90701C15.0505 4.57214 14.9175 4.25099 14.6807 4.0142C14.4439 3.77741 14.1228 3.64439 13.7879 3.64439ZM17.5758 11.8515C17.5748 10.8472 17.1754 9.88428 16.4652 9.17413C15.7551 8.46398 14.7922 8.06458 13.7879 8.06358C13.6205 8.06358 13.4599 8.13009 13.3415 8.24849C13.2231 8.36688 13.1566 8.52746 13.1566 8.69489C13.1566 8.86233 13.2231 9.0229 13.3415 9.1413C13.4599 9.25969 13.6205 9.32621 13.7879 9.32621C14.4576 9.32621 15.0999 9.59226 15.5735 10.0658C16.0471 10.5394 16.3131 11.1817 16.3131 11.8515C16.3131 12.0189 16.3797 12.1795 16.4981 12.2979C16.6164 12.4163 16.777 12.4828 16.9445 12.4828C17.1119 12.4828 17.2725 12.4163 17.3909 12.2979C17.5093 12.1795 17.5758 12.0189 17.5758 11.8515ZM6.21213 7.43227C5.71269 7.43227 5.22445 7.28416 4.80918 7.00668C4.3939 6.72921 4.07024 6.33482 3.87911 5.87339C3.68797 5.41196 3.63797 4.90421 3.7354 4.41436C3.83284 3.92451 4.07335 3.47455 4.42651 3.12139C4.77967 2.76823 5.22963 2.52772 5.71948 2.43028C6.20933 2.33285 6.71708 2.38285 7.17851 2.57398C7.63994 2.76511 8.03433 3.08878 8.3118 3.50406C8.58928 3.91933 8.73739 4.40757 8.73739 4.90701C8.73739 5.57675 8.47133 6.21906 7.99776 6.69264C7.52418 7.16621 6.88187 7.43227 6.21213 7.43227ZM6.21213 3.64439C5.96241 3.64439 5.71829 3.71844 5.51066 3.85718C5.30302 3.99592 5.14118 4.19311 5.04562 4.42383C4.95005 4.65454 4.92505 4.90841 4.97377 5.15334C5.02249 5.39827 5.14274 5.62324 5.31932 5.79983C5.4959 5.97641 5.72088 6.09666 5.96581 6.14538C6.21073 6.1941 6.46461 6.16909 6.69532 6.07353C6.92604 5.97796 7.12323 5.81613 7.26197 5.60849C7.40071 5.40085 7.47476 5.15674 7.47476 4.90701C7.47476 4.57214 7.34173 4.25099 7.10495 4.0142C6.86816 3.77741 6.547 3.64439 6.21213 3.64439ZM3.68688 11.8515C3.68688 11.1817 3.95293 10.5394 4.42651 10.0658C4.90009 9.59226 5.5424 9.32621 6.21213 9.32621C6.37957 9.32621 6.54015 9.25969 6.65854 9.1413C6.77693 9.0229 6.84345 8.86233 6.84345 8.69489C6.84345 8.52746 6.77693 8.36688 6.65854 8.24849C6.54015 8.13009 6.37957 8.06358 6.21213 8.06358C5.20783 8.06458 4.24495 8.46398 3.53481 9.17413C2.82466 9.88428 2.42526 10.8472 2.42426 11.8515C2.42426 12.0189 2.49077 12.1795 2.60916 12.2979C2.72756 12.4163 2.88813 12.4828 3.05557 12.4828C3.223 12.4828 3.38358 12.4163 3.50197 12.2979C3.62037 12.1795 3.68688 12.0189 3.68688 11.8515Z" />
</g>
<defs>
<clipPath id="clip0_42_1878">
<rect width="15.1515" height="15.1515" fill="white" transform="translate(2.42426 2.38176)"/>
</clipPath>
</defs>
</svg>
