<svg width="18" height="18" viewBox="0 0 18 18" fill="none" xmlns="http://www.w3.org/2000/svg">
<g clip-path="url(#clip0_27_2271)">
<path d="M16.0369 11.625L14.4119 5.76814C14.0649 4.51528 13.3088 3.41448 12.2639 2.64095C11.2191 1.86741 9.94551 1.46559 8.64593 1.49944C7.34634 1.53329 6.09542 2.00087 5.09225 2.82774C4.08908 3.65462 3.39131 4.79329 3.11001 6.06252L1.85313 11.7188C1.79232 11.9928 1.7938 12.277 1.85747 12.5504C1.92115 12.8237 2.04539 13.0793 2.22103 13.2983C2.39667 13.5172 2.61923 13.6939 2.87229 13.8154C3.12534 13.9369 3.40244 13.9999 3.68313 14H5.93751C6.08096 14.7064 6.46421 15.3416 7.02235 15.7978C7.58048 16.2539 8.27916 16.5031 9.00001 16.5031C9.72086 16.5031 10.4195 16.2539 10.9777 15.7978C11.5358 15.3416 11.9191 14.7064 12.0625 14H14.2313C14.5201 13.9999 14.805 13.933 15.0637 13.8047C15.3224 13.6763 15.548 13.4899 15.7228 13.26C15.8977 13.0302 16.017 12.763 16.0716 12.4794C16.1262 12.1958 16.1139 11.9034 16.0369 11.625ZM9.00001 15.25C8.6136 15.2484 8.23711 15.1275 7.92207 14.9037C7.60703 14.68 7.36881 14.3643 7.24001 14H10.76C10.6312 14.3643 10.393 14.68 10.0779 14.9037C9.7629 15.1275 9.38642 15.2484 9.00001 15.25ZM14.7281 12.5031C14.6698 12.5804 14.5942 12.643 14.5074 12.6859C14.4206 12.7288 14.325 12.7507 14.2281 12.75H3.68313C3.58955 12.75 3.49716 12.729 3.41279 12.6885C3.32842 12.648 3.25422 12.589 3.19567 12.516C3.13712 12.443 3.09571 12.3578 3.0745 12.2667C3.05329 12.1755 3.05282 12.0807 3.07313 11.9894L4.33001 6.33314C4.55148 5.33702 5.09958 4.44352 5.88717 3.79467C6.67476 3.14582 7.65665 2.77887 8.67674 2.75215C9.69684 2.72543 10.6966 3.04046 11.5171 3.64718C12.3376 4.2539 12.9317 5.11748 13.205 6.10064L14.83 11.9575C14.8565 12.0501 14.8611 12.1476 14.8435 12.2424C14.8258 12.3371 14.7863 12.4263 14.7281 12.5031Z" fill="#171717"/>
</g>
<defs>
<clipPath id="clip0_27_2271">
<rect width="15" height="15" fill="white" transform="translate(1.5 1.5)"/>
</clipPath>
</defs>
</svg>
