<svg id="privacyPolicyIcon" viewBox="0 0 20 20" xmlns="http://www.w3.org/2000/svg">
<g clip-path="url(#clip0_42_1921)">
<path d="M8.73739 16.902C8.73739 17.2511 8.45519 17.5333 8.10607 17.5333H5.58082C3.84029 17.5333 2.42426 16.1172 2.42426 14.3767V5.53833C2.42426 3.7978 3.84029 2.38176 5.58082 2.38176H10.6313C12.3719 2.38176 13.7879 3.7978 13.7879 5.53833V6.80095C13.7879 7.15007 13.5057 7.43226 13.1566 7.43226C12.8075 7.43226 12.5253 7.15007 12.5253 6.80095V5.53833C12.5253 4.49413 11.6755 3.64439 10.6313 3.64439H5.58082C4.53663 3.64439 3.68688 4.49413 3.68688 5.53833V14.3767C3.68688 15.4209 4.53663 16.2706 5.58082 16.2706H8.10607C8.45519 16.2706 8.73739 16.5528 8.73739 16.902ZM11.2626 6.16964C11.2626 5.82052 10.9804 5.53833 10.6313 5.53833H5.58082C5.2317 5.53833 4.94951 5.82052 4.94951 6.16964C4.94951 6.51875 5.2317 6.80095 5.58082 6.80095H10.6313C10.9804 6.80095 11.2626 6.51875 11.2626 6.16964ZM8.73739 9.3262C8.73739 8.97709 8.45519 8.69489 8.10607 8.69489H5.58082C5.2317 8.69489 4.94951 8.97709 4.94951 9.3262C4.94951 9.67532 5.2317 9.95752 5.58082 9.95752H8.10607C8.45519 9.95752 8.73739 9.67532 8.73739 9.3262ZM5.58082 11.8515C5.2317 11.8515 4.94951 12.1337 4.94951 12.4828C4.94951 12.8319 5.2317 13.1141 5.58082 13.1141H6.84345C7.19256 13.1141 7.47476 12.8319 7.47476 12.4828C7.47476 12.1337 7.19256 11.8515 6.84345 11.8515H5.58082ZM17.5758 13.1141C17.5758 15.5503 15.5928 17.5333 13.1566 17.5333C10.7203 17.5333 8.73739 15.5503 8.73739 13.1141C8.73739 10.6778 10.7203 8.69489 13.1566 8.69489C15.5928 8.69489 17.5758 10.6778 17.5758 13.1141ZM16.3131 13.1141C16.3131 11.3736 14.8971 9.95752 13.1566 9.95752C11.416 9.95752 10 11.3736 10 13.1141C10 14.8546 11.416 16.2706 13.1566 16.2706C14.8971 16.2706 16.3131 14.8546 16.3131 13.1141ZM14.298 12.3306L12.8946 13.6778C12.8037 13.7669 12.6553 13.7688 12.565 13.6791L11.851 12.9796C11.601 12.7347 11.202 12.7385 10.9583 12.9885C10.714 13.2378 10.7178 13.6368 10.9672 13.8811L11.6818 14.5813C11.9722 14.8647 12.3523 15.0068 12.7317 15.0068C13.1111 15.0068 13.4899 14.8647 13.7753 14.5831L15.1724 13.2422C15.4236 13.0004 15.4318 12.6008 15.1907 12.3496C14.9489 12.097 14.5486 12.0901 14.298 12.3313V12.3306Z" />
</g>
<defs>
<clipPath id="clip0_42_1921">
<rect width="15.1515" height="15.1515" fill="white" transform="translate(2.42426 2.38176)"/>
</clipPath>
</defs>
</svg>
