<svg id="requestsIcon" viewBox="0 0 20 20" xmlns="http://www.w3.org/2000/svg">
<g clip-path="url(#clip0_42_1854)">
<path d="M8.66037 13.8224C8.83625 13.9984 9.04509 14.138 9.27496 14.2333C9.50482 14.3285 9.7512 14.3776 10 14.3776C10.2488 14.3776 10.4952 14.3285 10.7251 14.2333C10.9549 14.138 11.1638 13.9984 11.3397 13.8224L13.3668 11.7953C13.4755 11.675 13.5338 11.5176 13.5296 11.3556C13.5255 11.1936 13.4592 11.0394 13.3445 10.925C13.2297 10.8105 13.0754 10.7445 12.9134 10.7407C12.7514 10.7369 12.5941 10.7955 12.4741 10.9045L10.6269 12.7523L10.6313 3.01306C10.6313 2.84562 10.5648 2.68505 10.4464 2.56665C10.328 2.44826 10.1675 2.38174 10 2.38174C9.83258 2.38174 9.672 2.44826 9.55361 2.56665C9.43522 2.68505 9.3687 2.84562 9.3687 3.01306L9.36302 12.7403L7.5259 10.9045C7.40744 10.7861 7.24681 10.7196 7.07934 10.7197C6.91187 10.7197 6.75128 10.7863 6.63291 10.9048C6.51453 11.0232 6.44806 11.1839 6.44812 11.3513C6.44818 11.5188 6.51476 11.6794 6.63322 11.7978L8.66037 13.8224Z" />
<path d="M16.9445 12.4827C16.777 12.4827 16.6164 12.5492 16.4981 12.6676C16.3797 12.786 16.3131 12.9466 16.3131 13.114V15.6393C16.3131 15.8067 16.2466 15.9673 16.1282 16.0857C16.0098 16.2041 15.8493 16.2706 15.6818 16.2706H4.31819C4.15076 16.2706 3.99018 16.2041 3.87179 16.0857C3.75339 15.9673 3.68688 15.8067 3.68688 15.6393V13.114C3.68688 12.9466 3.62037 12.786 3.50197 12.6676C3.38358 12.5492 3.223 12.4827 3.05557 12.4827C2.88813 12.4827 2.72756 12.5492 2.60916 12.6676C2.49077 12.786 2.42426 12.9466 2.42426 13.114V15.6393C2.42426 16.1416 2.62379 16.6233 2.97898 16.9785C3.33416 17.3337 3.81589 17.5332 4.31819 17.5332H15.6818C16.1841 17.5332 16.6659 17.3337 17.0211 16.9785C17.3762 16.6233 17.5758 16.1416 17.5758 15.6393V13.114C17.5758 12.9466 17.5093 12.786 17.3909 12.6676C17.2725 12.5492 17.1119 12.4827 16.9445 12.4827Z" />
</g>
<defs>
<clipPath id="clip0_42_1854">
<rect width="15.1515" height="15.1515" fill="white" transform="translate(2.42426 2.38174)"/>
</clipPath>
</defs>
</svg>
