<svg width="20" height="20" viewBox="0 0 20 20" fill="none" xmlns="http://www.w3.org/2000/svg">
<path d="M15.0438 1.79232L3.2867 5.71137C2.82341 5.86674 2.41931 6.16122 2.12951 6.55464C1.8397 6.94807 1.67828 7.42131 1.66726 7.90983C1.65624 8.39835 1.79616 8.87839 2.06793 9.28448C2.3397 9.69058 2.73011 10.003 3.18592 10.1791L7.53606 11.8419C7.63924 11.8841 7.73297 11.9464 7.8118 12.0252C7.89062 12.1041 7.95295 12.1978 7.99515 12.301L9.65795 16.6511C9.79982 17.0206 10.0318 17.3488 10.3328 17.6059C10.6338 17.863 10.9942 18.0407 11.3814 18.1231C11.7685 18.2054 12.1701 18.1897 12.5497 18.0773C12.9292 17.9649 13.2746 17.7595 13.5546 17.4797C13.8141 17.2149 14.0112 16.8955 14.1313 16.5447L18.0503 4.78759C18.1885 4.3697 18.2078 3.92164 18.1062 3.49341C18.0045 3.06517 17.7859 2.67359 17.4747 2.36237C17.1634 2.05114 16.7719 1.83251 16.3436 1.73087C15.9154 1.62922 15.4673 1.64856 15.0494 1.78672L15.0438 1.79232ZM16.5443 4.28931L12.6252 16.0465C12.5717 16.1988 12.4729 16.3311 12.3421 16.4257C12.2112 16.5203 12.0546 16.5727 11.8931 16.5757C11.7317 16.5788 11.5732 16.5324 11.4388 16.4428C11.3045 16.3532 11.2008 16.2247 11.1416 16.0744L9.47319 11.7299C9.45037 11.6724 9.42419 11.6164 9.39481 11.5619L13.2523 7.70448C13.4008 7.556 13.4842 7.35461 13.4842 7.14462C13.4842 6.93463 13.4008 6.73324 13.2523 6.58476C13.1038 6.43627 12.9024 6.35285 12.6924 6.35285C12.4824 6.35285 12.281 6.43627 12.1325 6.58476L8.27508 10.4422C8.22067 10.4128 8.16459 10.3867 8.10712 10.3638L3.76258 8.69544C3.61236 8.63623 3.48384 8.5325 3.39425 8.39818C3.30465 8.26385 3.25827 8.10534 3.26131 7.9439C3.26436 7.78246 3.31669 7.62582 3.41129 7.49496C3.50589 7.36411 3.63823 7.26531 3.79057 7.2118L15.5477 3.29276C15.6864 3.24803 15.8347 3.24245 15.9764 3.27663C16.1181 3.3108 16.2475 3.38341 16.3506 3.48645C16.4536 3.58949 16.5262 3.71897 16.5604 3.86063C16.5946 4.00228 16.589 4.15062 16.5443 4.28931Z" fill="white"/>
</svg>
