<svg id="transactionsIcon" viewBox="0 0 20 20" xmlns="http://www.w3.org/2000/svg">
<g clip-path="url(#clip0_42_1865)">
<path d="M2.42426 6.80094C2.42426 6.63351 2.49077 6.47293 2.60916 6.35454C2.72756 6.23614 2.88813 6.16963 3.05557 6.16963H13.7879V4.04779C13.7891 3.94959 13.8193 3.85393 13.8745 3.77275C13.9298 3.69157 14.0077 3.62845 14.0986 3.59129C14.1895 3.55412 14.2893 3.54454 14.3857 3.56375C14.482 3.58296 14.5705 3.63011 14.6402 3.6993L17.4293 6.45246C17.4753 6.49785 17.5118 6.55192 17.5367 6.61152C17.5616 6.67113 17.5744 6.73508 17.5744 6.79968C17.5744 6.86428 17.5616 6.92824 17.5367 6.98784C17.5118 7.04745 17.4753 7.10151 17.4293 7.1469L14.6402 9.90259C14.5705 9.97178 14.482 10.0189 14.3857 10.0381C14.2893 10.0573 14.1895 10.0478 14.0986 10.0106C14.0077 9.97343 13.9298 9.91032 13.8745 9.82914C13.8193 9.74796 13.7891 9.6523 13.7879 9.5541V7.43226H3.05557C2.88813 7.43226 2.72756 7.36574 2.60916 7.24735C2.49077 7.12896 2.42426 6.96838 2.42426 6.80094ZM16.9445 12.4828H6.21213V10.3609C6.2109 10.2627 6.18077 10.1671 6.12551 10.0859C6.07025 10.0047 5.99231 9.94159 5.90141 9.90442C5.81051 9.86725 5.71068 9.85767 5.61437 9.87688C5.51806 9.89609 5.42955 9.94324 5.35986 10.0124L2.57072 12.7656C2.52476 12.811 2.48826 12.865 2.46336 12.9247C2.43845 12.9843 2.42562 13.0482 2.42562 13.1128C2.42562 13.1774 2.43845 13.2414 2.46336 13.301C2.48826 13.3606 2.52476 13.4146 2.57072 13.46L5.35986 16.2157C5.42955 16.2849 5.51806 16.3321 5.61437 16.3513C5.71068 16.3705 5.81051 16.3609 5.90141 16.3237C5.99231 16.2866 6.07025 16.2235 6.12551 16.1423C6.18077 16.0611 6.2109 15.9654 6.21213 15.8672V13.7454H16.9445C17.1119 13.7454 17.2725 13.6789 17.3909 13.5605C17.5093 13.4421 17.5758 13.2815 17.5758 13.1141C17.5758 12.9466 17.5093 12.7861 17.3909 12.6677C17.2725 12.5493 17.1119 12.4828 16.9445 12.4828Z"/>
</g>
<defs>
<clipPath id="clip0_42_1865">
<rect width="15.1515" height="15.1515" fill="white" transform="translate(2.42426 2.38176)"/>
</clipPath>
</defs>
</svg>
